<?xml version="1.0" encoding="utf-8"?>
<!-- Generator: Adobe Illustrator 23.0.1, SVG Export Plug-In . SVG Version: 6.00 Build 0)  -->
<svg version="1.1" xmlns="http://www.w3.org/2000/svg" xmlns:xlink="http://www.w3.org/1999/xlink" x="0px" y="0px"
	 viewBox="0 0 2850 1800" enable-background="new 0 0 2850 1800" xml:space="preserve">
<g id="Layer_1_1_">
	<linearGradient id="SVGID_1_" gradientUnits="userSpaceOnUse" x1="1432.2283" y1="7.2673" x2="1421.3629" y2="1349.2001">
		<stop  offset="0" style="stop-color:#E7271E"/>
		<stop  offset="0.4589" style="stop-color:#812453"/>
		<stop  offset="0.83" style="stop-color:#35227B"/>
		<stop  offset="1" style="stop-color:#17218A"/>
	</linearGradient>
	<rect y="0" fill="url(#SVGID_1_)" width="2850" height="1800"/>
	<g opacity="0.09">
		
			<linearGradient id="SVGID_2_" gradientUnits="userSpaceOnUse" x1="-1.818989e-12" y1="735.2782" x2="2850" y2="735.2782" gradientTransform="matrix(-1 0 0 1 2850 0)">
			<stop  offset="0" style="stop-color:#FFFFFF"/>
			<stop  offset="0.9938" style="stop-color:#F2F9FF"/>
		</linearGradient>
		<path fill="url(#SVGID_2_)" d="M650,441.964c118,29,226,61,343,93c145,40,275,94,417,139c277,86,536,179,826,223
			c207.825,32.473,408.767,55.462,614,57.816v133.846c-118.039,13.801-235.827,8.841-356-5.662c-33-4-65-14-98-16
			c-54-3-102-18-154-31c-130-30-250-63-375-104c-175-58-341-119-521-170c-142-40-278-79-425-99c-171-23-333-58-502-59
			c-15,0-30,3-45,4c-99,0-197-4-297,10c-25.89,3.732-51.558,7.195-77,10.929l0-248.962C217.984,360.804,431.062,387.613,650,441.964
			z"/>
		
			<linearGradient id="SVGID_3_" gradientUnits="userSpaceOnUse" x1="0" y1="424.9989" x2="2850" y2="424.9989" gradientTransform="matrix(-1 0 0 1 2850 0)">
			<stop  offset="0" style="stop-color:#FFFFFF"/>
			<stop  offset="0.9938" style="stop-color:#F2F9FF"/>
		</linearGradient>
		<path fill="url(#SVGID_3_)" d="M2667,845.964c-112-9-218-18-333-42c-207-43-394-92-586-162c-168-60-320-143-481-218
			c-141-65-277-126-422-179c-152-56-301-91-462-118c-130.418-22.486-255.176-19.083-383-13.078L0,0l693.97,0
			C823.525,32.968,950.905,76.071,1075,126.964c109,44,216,82,320,141c97,54,193,91,290,140c91,47,177,95,271,134
			c75,31,151,52,228,78c112,38,218,80,337,94c89,11,174,21,262,31c22.663,2.833,44.436,0.32,67,0.872v101.69
			C2789.147,851.244,2728.074,850.802,2667,845.964z"/>
		
			<linearGradient id="SVGID_4_" gradientUnits="userSpaceOnUse" x1="0" y1="316.9244" x2="1546.2649" y2="316.9244" gradientTransform="matrix(-1 0 0 1 2850 0)">
			<stop  offset="0" style="stop-color:#FFFFFF"/>
			<stop  offset="0.9938" style="stop-color:#F2F9FF"/>
		</linearGradient>
		<path fill="url(#SVGID_4_)" d="M2561,566.964c-71-26-144-37-214-65c-286-116-546-265-823-403
			C1451.477,63.002,1378.144,29.65,1303.735,0l343.448,0C1760.575,29.204,1873.848,60.052,1991,91.964c195,54,373,127,566,185
			c99.872,29.868,191.036,72.795,293,90.581v266.304c-5.992-1.245-11.99-2.524-18-3.884C2739,607.964,2649,599.964,2561,566.964z"/>
	</g>
	<g>
		<path opacity="0.1" fill="#E5EDD4" d="M1905.869,0.03H944.042C652.585,166.897,456.219,480.765,456.219,840.464
			c0,278.43,117.665,529.391,306.007,705.979h1325.459c188.342-176.587,306.007-427.549,306.007-705.979
			C2393.692,480.765,2197.327,166.897,1905.869,0.03z"/>
		<circle opacity="0.1" fill="#E5EDD4" cx="1425" cy="856.484" r="795.603"/>
		<circle opacity="0.1" fill="#E5EDD4" cx="1430.816" cy="866.238" r="644.334"/>
		<g>
			<circle fill="#FEE6D5" cx="1436.842" cy="858.987" r="480.417"/>
		</g>
	</g>
	<g>
		<g>
			<g>
				<path fill="#FFFFFF" d="M1707.48,264.501c0.588-1.213,0.61-2.531-0.232-3.621c-0.65-0.842-1.652-1.314-2.719-1.312
					c-0.903,0.002-1.843,0.357-2.477,1.008c-1.051,1.079-1.134,2.629-0.467,3.931c0.733,1.433,2.861,1.965,4.201,1.101
					c1.462-0.942,1.885-2.668,1.101-4.201c-0.011-0.021-0.021-0.042-0.032-0.063c0.103,0.244,0.206,0.489,0.31,0.733
					c-0.004-0.019-0.008-0.037-0.011-0.056c0,0.544,0,1.088,0,1.632c0.002-0.016,0.005-0.033,0.007-0.049
					c-0.103,0.244-0.206,0.489-0.31,0.733c0.008-0.014,0.016-0.028,0.023-0.042c-0.16,0.207-0.32,0.414-0.48,0.621
					c0.012-0.012,0.025-0.024,0.037-0.036c-0.207,0.16-0.414,0.32-0.621,0.48c0.016-0.01,0.032-0.019,0.048-0.029
					c-0.244,0.103-0.489,0.206-0.733,0.31c0.038-0.018,0.078-0.03,0.12-0.036c-0.272,0.037-0.544,0.073-0.816,0.11
					c0.071-0.008,0.131-0.009,0.202-0.002c-0.272-0.037-0.544-0.073-0.816-0.11c0.042,0.006,0.082,0.017,0.12,0.034
					c-0.244-0.103-0.489-0.206-0.733-0.31c0.016,0.009,0.032,0.018,0.049,0.028c-0.207-0.16-0.414-0.32-0.621-0.48
					c0.013,0.012,0.025,0.023,0.038,0.035c-0.16-0.207-0.32-0.414-0.48-0.621c0.008,0.014,0.016,0.028,0.024,0.042
					c-0.103-0.244-0.206-0.489-0.309-0.733c0.003,0.016,0.006,0.033,0.008,0.049c0-0.544,0-1.088,0-1.632
					c-0.003,0.019-0.007,0.038-0.01,0.056c0.103-0.244,0.206-0.489,0.309-0.733c-0.01,0.021-0.021,0.042-0.031,0.064
					c-0.365,0.752-0.538,1.536-0.31,2.366c0.196,0.712,0.747,1.484,1.411,1.835C1704.656,266.329,1706.733,266.044,1707.48,264.501
					L1707.48,264.501z"/>
			</g>
		</g>
		<g>
			<g>
				<path fill="#FFFFFF" d="M1717.645,179.115c-0.275,0.275-0.551,0.551-0.826,0.826c-1.137,1.137-1.222,3.22,0,4.342
					c1.226,1.125,3.128,1.213,4.342,0c0.275-0.275,0.551-0.55,0.826-0.826c1.137-1.137,1.222-3.22,0-4.342
					C1720.761,177.989,1718.858,177.901,1717.645,179.115L1717.645,179.115z"/>
			</g>
		</g>
		<g>
			<g>
				<path fill="#FFFFFF" d="M1757.491,137.004c-0.275-0.275-0.55-0.55-0.826-0.826c-1.137-1.137-3.22-1.222-4.342,0
					c-1.125,1.226-1.214,3.128,0,4.342c0.275,0.275,0.55,0.55,0.826,0.826c1.137,1.137,3.22,1.222,4.342,0
					C1758.617,140.121,1758.705,138.218,1757.491,137.004L1757.491,137.004z"/>
			</g>
		</g>
		<g>
			<g>
				<path fill="#FFFFFF" d="M1811.235,167.249c0-0.275,0-0.55,0-0.826c0-1.606-1.412-3.144-3.07-3.07
					c-1.663,0.075-3.07,1.349-3.07,3.07c0,0.275,0,0.55,0,0.826c0,1.606,1.412,3.144,3.07,3.07
					C1809.828,170.245,1811.235,168.97,1811.235,167.249L1811.235,167.249z"/>
			</g>
		</g>
		<g>
			<g>
				<path fill="#FFFFFF" d="M1760.824,334.04c-0.028-0.825-0.056-1.649-0.084-2.474c-0.055-1.603-1.373-3.146-3.07-3.07
					c-1.617,0.072-3.129,1.351-3.07,3.07c0.028,0.825,0.056,1.649,0.084,2.474c0.055,1.603,1.373,3.146,3.07,3.07
					C1759.37,337.038,1760.882,335.759,1760.824,334.04L1760.824,334.04z"/>
			</g>
		</g>
		<g>
			<g>
				<path fill="#FFFFFF" d="M1726.941,381.409c-0.275-0.275-0.55-0.55-0.826-0.826c-1.137-1.137-3.22-1.222-4.342,0
					c-1.125,1.226-1.214,3.128,0,4.342c0.275,0.275,0.551,0.55,0.826,0.826c1.137,1.137,3.22,1.222,4.342,0
					C1728.066,384.525,1728.155,382.622,1726.941,381.409L1726.941,381.409z"/>
			</g>
		</g>
		<g>
			<g>
				<path fill="#FFFFFF" d="M1647.155,280.601c-0.17,0-0.341,0-0.511,0c-3.951,0-3.958,6.14,0,6.14c0.17,0,0.341,0,0.511,0
					C1651.106,286.741,1651.113,280.601,1647.155,280.601c-0.17,0-0.341,0-0.511,0c-3.951,0-3.958,6.14,0,6.14
					c0.17,0,0.341,0,0.511,0C1651.106,286.741,1651.113,280.601,1647.155,280.601L1647.155,280.601z"/>
			</g>
		</g>
		<g>
			<g>
				<path fill="#FFFFFF" d="M1576.146,280.601c-0.275,0-0.55,0-0.826,0c-1.606,0-3.144,1.412-3.07,3.07
					c0.075,1.663,1.349,3.07,3.07,3.07c0.275,0,0.55,0,0.826,0c1.606,0,3.144-1.412,3.07-3.07
					C1579.141,282.008,1577.867,280.601,1576.146,280.601L1576.146,280.601z"/>
			</g>
		</g>
		<g>
			<g>
				<path fill="#FFFFFF" d="M1575.913,355.506c0-0.17,0-0.341,0-0.511c0-3.951-6.14-3.958-6.14,0c0,0.17,0,0.341,0,0.511
					C1569.773,359.457,1575.913,359.464,1575.913,355.506c0-0.17,0-0.341,0-0.511c0-3.951-6.14-3.958-6.14,0c0,0.17,0,0.341,0,0.511
					C1569.773,359.457,1575.913,359.464,1575.913,355.506L1575.913,355.506z"/>
			</g>
		</g>
		<g>
			<g>
				<path fill="#FFFFFF" d="M1475.931,313.09c0.275-0.275,0.55-0.551,0.826-0.826c1.137-1.137,1.222-3.22,0-4.342
					c-1.226-1.125-3.128-1.213-4.342,0c-0.275,0.275-0.551,0.55-0.826,0.826c-1.137,1.137-1.222,3.22,0,4.342
					C1472.815,314.215,1474.718,314.304,1475.931,313.09L1475.931,313.09z"/>
			</g>
		</g>
		<g>
			<g>
				<path fill="#FFFFFF" d="M1421.742,255.365c3.951,0,3.958-6.14,0-6.14C1417.791,249.225,1417.784,255.365,1421.742,255.365
					L1421.742,255.365z"/>
			</g>
		</g>
		<g>
			<g>
				<path fill="#FFFFFF" d="M1548.592,186.546c-0.275-0.275-0.551-0.55-0.826-0.826c-1.137-1.137-3.22-1.222-4.342,0
					c-1.125,1.226-1.213,3.128,0,4.342c0.275,0.275,0.551,0.55,0.826,0.826c1.137,1.137,3.22,1.222,4.342,0
					C1549.717,189.662,1549.805,187.759,1548.592,186.546L1548.592,186.546z"/>
			</g>
		</g>
		<g>
			<g>
				<path fill="#FFFFFF" d="M1396.971,378.032c-0.275,0-0.55,0-0.826,0c-1.606,0-3.144,1.412-3.07,3.07
					c0.074,1.663,1.349,3.07,3.07,3.07c0.275,0,0.551,0,0.826,0c1.606,0,3.145-1.412,3.07-3.07
					C1399.967,379.439,1398.692,378.032,1396.971,378.032L1396.971,378.032z"/>
			</g>
		</g>
		<g>
			<g>
				<path fill="#FFFFFF" d="M1527.43,463.904c-0.275,0-0.551,0-0.826,0c-1.606,0-3.144,1.412-3.07,3.07
					c0.075,1.663,1.349,3.07,3.07,3.07c0.275,0,0.551,0,0.826,0c1.606,0,3.144-1.412,3.07-3.07
					C1530.426,465.311,1529.151,463.904,1527.43,463.904L1527.43,463.904z"/>
			</g>
		</g>
		<g>
			<g>
				<path fill="#FFFFFF" d="M1929.555,523.277c-0.539,0-1.078,0-1.617,0c-1.606,0-3.144,1.412-3.07,3.07
					c0.074,1.663,1.349,3.07,3.07,3.07c0.539,0,1.078,0,1.617,0c1.606,0,3.144-1.412,3.07-3.07
					C1932.551,524.684,1931.277,523.277,1929.555,523.277L1929.555,523.277z"/>
			</g>
		</g>
		<g>
			<g>
				<path fill="#FFFFFF" d="M2096.146,422.67c3.951,0,3.958-6.14,0-6.14C2092.195,416.529,2092.189,422.67,2096.146,422.67
					L2096.146,422.67z"/>
			</g>
		</g>
		<g>
			<g>
				<path fill="#FFFFFF" d="M2272.456,427.719c-0.533-0.059-1.065-0.117-1.598-0.175c-0.732-0.08-1.672,0.401-2.171,0.899
					c-0.532,0.533-0.934,1.406-0.899,2.171c0.036,0.794,0.296,1.618,0.899,2.171c0.636,0.584,1.316,0.805,2.171,0.899
					c0.533,0.058,1.065,0.117,1.598,0.175c0.732,0.08,1.672-0.401,2.171-0.899c0.532-0.533,0.934-1.406,0.899-2.171
					c-0.035-0.794-0.296-1.618-0.899-2.171C2273.991,428.034,2273.311,427.813,2272.456,427.719L2272.456,427.719z"/>
			</g>
		</g>
		<g>
			<g>
				<path fill="#FFFFFF" d="M1914.999,253.173c-0.297,0-0.594,0-0.89,0c-3.951,0-3.958,6.14,0,6.14c0.297,0,0.593,0,0.89,0
					C1918.95,259.314,1918.957,253.173,1914.999,253.173c-0.297,0-0.594,0-0.89,0c-3.951,0-3.958,6.14,0,6.14
					c0.297,0,0.593,0,0.89,0C1918.95,259.314,1918.957,253.173,1914.999,253.173L1914.999,253.173z"/>
			</g>
		</g>
		<g>
			<g>
				<path fill="#FFFFFF" d="M2039.538,227.295c-0.297,0-0.594,0-0.89,0c-3.951,0-3.958,6.14,0,6.14c0.297,0,0.593,0,0.89,0
					C2043.489,233.436,2043.495,227.295,2039.538,227.295c-0.297,0-0.594,0-0.89,0c-3.951,0-3.958,6.14,0,6.14
					c0.297,0,0.593,0,0.89,0C2043.489,233.436,2043.495,227.295,2039.538,227.295L2039.538,227.295z"/>
			</g>
		</g>
		<g>
			<g>
				<path fill="#FFFFFF" d="M1879.97,79.395c-0.539-0.539-1.078-1.078-1.617-1.617c-1.137-1.137-3.22-1.222-4.342,0
					c-1.125,1.226-1.214,3.128,0,4.342c0.539,0.539,1.078,1.078,1.617,1.617c1.137,1.137,3.22,1.222,4.342,0
					C1881.095,82.511,1881.183,80.608,1879.97,79.395L1879.97,79.395z"/>
			</g>
		</g>
		<g>
			<g>
				<path fill="#FFFFFF" d="M1939.26,71.697c3.951,0,3.958-6.14,0-6.14C1935.309,65.556,1935.302,71.697,1939.26,71.697
					L1939.26,71.697z"/>
			</g>
		</g>
		<g>
			<g>
				<path fill="#FFFFFF" d="M1816.338,92.723c3.951,0,3.958-6.14,0-6.14C1812.387,86.582,1812.381,92.723,1816.338,92.723
					L1816.338,92.723z"/>
			</g>
		</g>
		<g>
			<g>
				<path fill="#FFFFFF" d="M1853.538,7.001c3.951,0,3.958-6.14,0-6.14C1849.587,0.861,1849.581,7.001,1853.538,7.001
					L1853.538,7.001z"/>
			</g>
		</g>
		<g>
			<g>
				<path fill="#FFFFFF" d="M1929.555,31.591c-0.539,0-1.078,0-1.617,0c-1.606,0-3.144,1.412-3.07,3.07
					c0.074,1.663,1.349,3.07,3.07,3.07c0.539,0,1.078,0,1.617,0c1.606,0,3.144-1.412,3.07-3.07
					C1932.551,32.998,1931.277,31.591,1929.555,31.591L1929.555,31.591z"/>
			</g>
		</g>
		<g>
			<g>
				<path fill="#FFFFFF" d="M2022.81,37.343c-0.539,0.539-1.078,1.078-1.617,1.617c-1.137,1.137-1.222,3.22,0,4.342
					c1.226,1.125,3.128,1.214,4.342,0c0.539-0.539,1.078-1.078,1.617-1.617c1.137-1.137,1.222-3.22,0-4.342
					C2025.927,36.218,2024.024,36.129,2022.81,37.343L2022.81,37.343z"/>
			</g>
		</g>
		<g>
			<g>
				<path fill="#FFFFFF" d="M2060.399,94.505c0-0.539,0-1.078,0-1.617c0-1.606-1.412-3.144-3.07-3.07
					c-1.664,0.075-3.07,1.349-3.07,3.07c0,0.539,0,1.078,0,1.617c0,1.606,1.412,3.144,3.07,3.07
					C2058.992,97.501,2060.399,96.226,2060.399,94.505L2060.399,94.505z"/>
			</g>
		</g>
		<g>
			<g>
				<path fill="#FFFFFF" d="M2092.747,143.026c0-0.297,0-0.593,0-0.89c0-3.951-6.14-3.958-6.14,0c0,0.297,0,0.593,0,0.89
					C2086.607,146.977,2092.747,146.984,2092.747,143.026c0-0.297,0-0.593,0-0.89c0-3.951-6.14-3.958-6.14,0c0,0.297,0,0.593,0,0.89
					C2086.607,146.977,2092.747,146.984,2092.747,143.026L2092.747,143.026z"/>
			</g>
		</g>
		<g>
			<g>
				<path fill="#FFFFFF" d="M2189.955,8.948c-0.539,0-1.078,0-1.617,0c-1.606,0-3.145,1.412-3.07,3.07
					c0.075,1.663,1.349,3.07,3.07,3.07c0.539,0,1.078,0,1.617,0c1.606,0,3.145-1.412,3.07-3.07
					C2192.95,10.355,2191.676,8.948,2189.955,8.948L2189.955,8.948z"/>
			</g>
		</g>
		<g>
			<g>
				<path fill="#FFFFFF" d="M2265.972,5.384c3.951,0,3.958-6.14,0-6.14C2262.021-0.756,2262.014,5.384,2265.972,5.384
					L2265.972,5.384z"/>
			</g>
		</g>
		<g>
			<g>
				<path fill="#FFFFFF" d="M2265.972,120.548c-0.539,0-1.078,0-1.617,0c-1.606,0-3.144,1.412-3.07,3.07
					c0.074,1.663,1.349,3.07,3.07,3.07c0.539,0,1.078,0,1.617,0c1.606,0,3.145-1.412,3.07-3.07
					C2268.968,121.954,2267.693,120.548,2265.972,120.548L2265.972,120.548z"/>
			</g>
		</g>
		<g>
			<g>
				<path fill="#FFFFFF" d="M2490.789,17.035c-0.297,0-0.594,0-0.89,0c-3.951,0-3.958,6.14,0,6.14c0.297,0,0.594,0,0.89,0
					C2494.74,23.175,2494.746,17.035,2490.789,17.035c-0.297,0-0.594,0-0.89,0c-3.951,0-3.958,6.14,0,6.14c0.297,0,0.594,0,0.89,0
					C2494.74,23.175,2494.746,17.035,2490.789,17.035L2490.789,17.035z"/>
			</g>
		</g>
		<g>
			<g>
				<path fill="#FFFFFF" d="M2569.876,58.922c0-0.539,0-1.078,0-1.617c0-1.606-1.412-3.144-3.07-3.07
					c-1.663,0.075-3.07,1.349-3.07,3.07c0,0.539,0,1.078,0,1.617c0,1.606,1.412,3.144,3.07,3.07
					C2568.469,61.918,2569.876,60.644,2569.876,58.922L2569.876,58.922z"/>
			</g>
		</g>
		<g>
			<g>
				<path fill="#FFFFFF" d="M2642.773,351.549c-0.052,0.01-0.104,0.011-0.156,0.004c0.272,0.037,0.544,0.073,0.816,0.11
					c-0.023-0.005-0.046-0.011-0.068-0.016c0.244,0.103,0.489,0.206,0.733,0.309c-0.043-0.014-0.082-0.036-0.118-0.064
					c0.207,0.16,0.414,0.32,0.621,0.48c-0.036-0.028-0.066-0.061-0.093-0.099c0.16,0.207,0.32,0.414,0.48,0.621
					c-0.027-0.039-0.05-0.081-0.068-0.126c0.103,0.244,0.207,0.489,0.31,0.733c-0.026-0.075-0.043-0.143-0.055-0.222
					c0.037,0.272,0.073,0.544,0.11,0.816c-0.006-0.082-0.006-0.156,0-0.238c-0.036,0.272-0.073,0.544-0.11,0.816
					c0.012-0.08,0.028-0.15,0.053-0.227c-0.103,0.244-0.206,0.489-0.31,0.733c0.03-0.071,0.061-0.127,0.106-0.189
					c-0.16,0.207-0.32,0.414-0.48,0.621c0.029-0.035,0.062-0.066,0.1-0.092c-0.207,0.16-0.414,0.32-0.622,0.48
					c0.02-0.011,0.039-0.022,0.058-0.033c-0.244,0.103-0.489,0.206-0.733,0.309c0.042-0.019,0.087-0.03,0.133-0.034
					c-0.272,0.037-0.544,0.073-0.816,0.11c0.025,0,0.05,0.001,0.075,0.001c-0.272-0.037-0.544-0.073-0.816-0.11
					c0.027,0.005,0.054,0.009,0.081,0.014c0.833,0.145,1.612,0.132,2.366-0.309c0.637-0.373,1.244-1.103,1.411-1.835
					c0.34-1.492-0.452-3.483-2.144-3.777c-1.251-0.217-2.443-0.049-3.387,0.883c-0.696,0.687-1.111,1.699-1.108,2.677
					c0.003,0.891,0.239,1.699,0.785,2.406c0.654,0.846,1.732,1.497,2.846,1.385c0.834-0.084,1.558-0.286,2.171-0.899
					c0.533-0.533,0.934-1.406,0.899-2.171C2645.775,353.094,2644.484,351.376,2642.773,351.549L2642.773,351.549z"/>
			</g>
		</g>
		<g>
			<g>
				<path fill="#FFFFFF" d="M2480.837,478.617c-0.027-0.087-0.038-0.241-0.084-0.315c0.237,0.377,0.054,0.677,0.079,0.251
					c0.022-0.385-0.039,0.719-0.03,0.336c0.01-0.4,0.379-0.117-0.104,0.2c0.029-0.019,0.165-0.246,0.168-0.281
					c-0.004,0.061-0.456,0.566-0.167,0.246c0.335-0.372-0.479,0.287-0.174,0.132c0.311-0.158-0.777,0.265-0.213,0.081
					c1.524-0.497,2.671-2.147,2.144-3.777c-0.493-1.522-2.142-2.678-3.777-2.144c-2.833,0.925-4.673,3.961-3.762,6.904
					c0.474,1.532,2.164,2.666,3.777,2.144C2480.235,481.895,2481.346,480.26,2480.837,478.617L2480.837,478.617z"/>
			</g>
		</g>
		<g>
			<g>
				<path fill="#FFFFFF" d="M2596.799,573.397c-0.541-1.077-1.082-2.154-1.624-3.232c-0.722-1.438-2.868-1.961-4.2-1.101
					c-1.47,0.948-1.874,2.662-1.102,4.201c0.541,1.077,1.082,2.154,1.624,3.232c0.722,1.438,2.868,1.961,4.2,1.101
					C2597.167,576.649,2597.571,574.935,2596.799,573.397L2596.799,573.397z"/>
			</g>
		</g>
		<g>
			<g>
				<path fill="#FFFFFF" d="M2744.554,508.556c0-0.539,0-1.078,0-1.617c0-1.606-1.412-3.144-3.07-3.07
					c-1.664,0.075-3.07,1.349-3.07,3.07c0,0.539,0,1.078,0,1.617c0,1.606,1.412,3.144,3.07,3.07
					C2743.147,511.552,2744.554,510.277,2744.554,508.556L2744.554,508.556z"/>
			</g>
		</g>
		<g>
			<g>
				<path fill="#FFFFFF" d="M2746.171,658.973c0-0.539,0-1.078,0-1.617c0-1.606-1.412-3.144-3.07-3.07
					c-1.664,0.075-3.07,1.349-3.07,3.07c0,0.539,0,1.078,0,1.617c0,1.606,1.412,3.144,3.07,3.07
					C2744.765,661.969,2746.171,660.694,2746.171,658.973L2746.171,658.973z"/>
			</g>
		</g>
		<g>
			<g>
				<path fill="#FFFFFF" d="M2393.581,709.112c0-0.539,0-1.078,0-1.617c0-1.606-1.412-3.144-3.07-3.07
					c-1.663,0.074-3.07,1.349-3.07,3.07c0,0.539,0,1.078,0,1.617c0,1.606,1.412,3.144,3.07,3.07
					C2392.174,712.108,2393.581,710.833,2393.581,709.112L2393.581,709.112z"/>
			</g>
		</g>
		<g>
			<g>
				<path fill="#FFFFFF" d="M1905.13,730.138c0-0.539,0-1.078,0-1.617c0-1.606-1.412-3.144-3.07-3.07
					c-1.663,0.074-3.07,1.349-3.07,3.07c0,0.539,0,1.078,0,1.617c0,1.606,1.412,3.144,3.07,3.07
					C1903.723,733.134,1905.13,731.859,1905.13,730.138L1905.13,730.138z"/>
			</g>
		</g>
		<g>
			<g>
				<path fill="#FFFFFF" d="M1591.521,632.93c3.951,0,3.958-6.14,0-6.14C1587.57,626.79,1587.564,632.93,1591.521,632.93
					L1591.521,632.93z"/>
			</g>
		</g>
		<g>
			<g>
				<path fill="#FFFFFF" d="M1392.418,587.808c0-0.539,0-1.078,0-1.617c0-1.606-1.412-3.144-3.07-3.07
					c-1.663,0.074-3.07,1.349-3.07,3.07c0,0.539,0,1.078,0,1.617c0,1.606,1.412,3.144,3.07,3.07
					C1391.011,590.804,1392.418,589.529,1392.418,587.808L1392.418,587.808z"/>
			</g>
		</g>
		<g>
			<g>
				<path fill="#FFFFFF" d="M1061.019,642.635c3.951,0,3.958-6.14,0-6.14C1057.068,636.494,1057.061,642.635,1061.019,642.635
					L1061.019,642.635z"/>
			</g>
		</g>
		<g>
			<g>
				<path fill="#FFFFFF" d="M955.335,467.568c-0.539,0.539-1.078,1.078-1.617,1.617c-1.137,1.137-1.222,3.22,0,4.342
					c1.226,1.125,3.128,1.214,4.342,0c0.539-0.539,1.078-1.078,1.617-1.617c1.137-1.137,1.222-3.22,0-4.342
					C958.451,466.442,956.548,466.354,955.335,467.568L955.335,467.568z"/>
			</g>
		</g>
		<g>
			<g>
				<path fill="#FFFFFF" d="M975.297,371.243c-0.539,0-1.078,0-1.617,0c-1.606,0-3.144,1.412-3.07,3.07
					c0.075,1.663,1.349,3.07,3.07,3.07c0.539,0,1.078,0,1.617,0c1.606,0,3.144-1.412,3.07-3.07
					C978.293,372.649,977.018,371.243,975.297,371.243L975.297,371.243z"/>
			</g>
		</g>
		<g>
			<g>
				<path fill="#FFFFFF" d="M1200.114,304.6c3.951,0,3.958-6.14,0-6.14C1196.163,298.46,1196.156,304.6,1200.114,304.6
					L1200.114,304.6z"/>
			</g>
		</g>
		<g>
			<g>
				<path fill="#FFFFFF" d="M958.57,181.29c-0.539,0.539-1.078,1.078-1.617,1.617c-1.137,1.137-1.222,3.22,0,4.342
					c1.226,1.125,3.128,1.214,4.342,0c0.539-0.539,1.078-1.078,1.617-1.617c1.137-1.137,1.222-3.22,0-4.342
					C961.686,180.165,959.783,180.077,958.57,181.29L958.57,181.29z"/>
			</g>
		</g>
		<g>
			<g>
				<path fill="#FFFFFF" d="M951.036,93.052c-0.297,0-0.593,0-0.89,0c-3.951,0-3.958,6.14,0,6.14c0.297,0,0.593,0,0.89,0
					C954.987,99.192,954.994,93.052,951.036,93.052c-0.297,0-0.593,0-0.89,0c-3.951,0-3.958,6.14,0,6.14c0.297,0,0.593,0,0.89,0
					C954.987,99.192,954.994,93.052,951.036,93.052L951.036,93.052z"/>
			</g>
		</g>
		<g>
			<g>
				<path fill="#FFFFFF" d="M684.167,120.548c-0.539,0-1.078,0-1.617,0c-1.606,0-3.144,1.412-3.07,3.07
					c0.075,1.663,1.349,3.07,3.07,3.07c0.539,0,1.078,0,1.617,0c1.606,0,3.144-1.412,3.07-3.07
					C687.163,121.954,685.889,120.548,684.167,120.548L684.167,120.548z"/>
			</g>
		</g>
		<g>
			<g>
				<path fill="#FFFFFF" d="M723.149,44.366c0,0.297,0,0.593,0,0.89c0,3.951,6.14,3.958,6.14,0c0-0.297,0-0.593,0-0.89
					C729.29,40.415,723.149,40.408,723.149,44.366c0,0.297,0,0.593,0,0.89c0,3.951,6.14,3.958,6.14,0c0-0.297,0-0.593,0-0.89
					C729.29,40.415,723.149,40.408,723.149,44.366L723.149,44.366z"/>
			</g>
		</g>
		<g>
			<g>
				<path fill="#FFFFFF" d="M682.253,390.501c-0.059-0.533-0.117-1.065-0.175-1.598c-0.092-0.838-0.281-1.553-0.899-2.171
					c-0.533-0.533-1.406-0.934-2.171-0.899c-0.794,0.036-1.618,0.296-2.171,0.899c-0.516,0.562-0.986,1.378-0.899,2.171
					c0.058,0.533,0.117,1.065,0.175,1.598c0.092,0.838,0.281,1.553,0.899,2.171c0.532,0.533,1.406,0.934,2.171,0.899
					c0.794-0.036,1.618-0.296,2.171-0.899C681.87,392.11,682.34,391.294,682.253,390.501L682.253,390.501z"/>
			</g>
		</g>
		<g>
			<g>
				<path fill="#FFFFFF" d="M478.759,37.732c1.078,0,2.157,0,3.235,0c1.606,0,3.144-1.412,3.07-3.07
					c-0.075-1.663-1.349-3.07-3.07-3.07c-1.078,0-2.157,0-3.235,0c-1.606,0-3.144,1.412-3.07,3.07
					C475.764,36.325,477.038,37.732,478.759,37.732L478.759,37.732z"/>
			</g>
		</g>
		<g>
			<g>
				<path fill="#FFFFFF" d="M226.447,91.105c0.539,0,1.078,0,1.617,0c1.606,0,3.144-1.412,3.07-3.07
					c-0.075-1.663-1.349-3.07-3.07-3.07c-0.539,0-1.078,0-1.617,0c-1.606,0-3.144,1.412-3.07,3.07
					C223.451,89.699,224.726,91.105,226.447,91.105L226.447,91.105z"/>
			</g>
		</g>
		<g>
			<g>
				<path fill="#FFFFFF" d="M271.726,274.109c-0.386,0.015,0.539,0.1,0.516,0.095c-0.357-0.088,0.512,0.238,0.475,0.22
					c-0.359-0.18,0.591,0.531,0.374,0.295c-0.205-0.223,0.479,0.667,0.312,0.408c-0.267-0.414,0.257,0.787,0.123,0.296
					c-0.133-0.486,0.034,0.906,0.038,0.27c0-0.016,0.01-0.202,0.009-0.202c0.015,0.003-0.139,0.871-0.061,0.52
					c0.124-0.561-0.29,0.548-0.136,0.287c0.185-0.314-0.348,0.429-0.32,0.4c0.274-0.296-0.595,0.41-0.381,0.285
					c0.246-0.144-0.764,0.288-0.483,0.208c0.236-0.068-0.915,0.067-0.471,0.082c1.607,0.056,3.143-1.452,3.07-3.07
					c-0.077-1.712-1.349-3.01-3.07-3.07c-2.519-0.088-4.301,2.183-4.296,4.562c0.005,2.373,1.779,4.655,4.302,4.557
					c1.603-0.062,3.146-1.368,3.07-3.07C274.724,275.57,273.445,274.043,271.726,274.109L271.726,274.109z"/>
			</g>
		</g>
		<g>
			<g>
				<path fill="#FFFFFF" d="M54.839,434.156c0-0.539,0-1.078,0-1.617c0-1.606-1.412-3.144-3.07-3.07
					c-1.663,0.074-3.07,1.349-3.07,3.07c0,0.539,0,1.078,0,1.617c0,1.606,1.412,3.144,3.07,3.07
					C53.432,437.152,54.839,435.877,54.839,434.156L54.839,434.156z"/>
			</g>
		</g>
		<g>
			<g>
				<path fill="#FFFFFF" d="M162.305,566.228c-0.539-0.539-1.078-1.078-1.617-1.617c-1.137-1.137-3.22-1.222-4.342,0
					c-1.125,1.226-1.214,3.128,0,4.342c0.539,0.539,1.078,1.078,1.617,1.617c1.137,1.137,3.22,1.222,4.342,0
					C163.43,569.345,163.518,567.442,162.305,566.228L162.305,566.228z"/>
			</g>
		</g>
		<g>
			<g>
				<path fill="#FFFFFF" d="M93.06,731.597c0.547-1.074,1.095-2.148,1.642-3.222c0.728-1.43,0.422-3.396-1.101-4.201
					c-1.401-0.74-3.422-0.426-4.201,1.101c-0.547,1.074-1.095,2.148-1.642,3.222c-0.728,1.43-0.422,3.396,1.101,4.201
					C90.26,733.439,92.281,733.125,93.06,731.597L93.06,731.597z"/>
			</g>
		</g>
		<g>
			<g>
				<path fill="#FFFFFF" d="M294.931,868.68c-0.539-0.539-1.078-1.078-1.617-1.617c-1.137-1.137-3.22-1.222-4.342,0
					c-1.125,1.226-1.213,3.128,0,4.342c0.539,0.539,1.078,1.078,1.617,1.617c1.137,1.137,3.22,1.222,4.342,0
					C296.056,871.796,296.144,869.893,294.931,868.68L294.931,868.68z"/>
			</g>
		</g>
		<g>
			<g>
				<path fill="#FFFFFF" d="M517.412,613.686c0-0.539,0-1.078,0-1.617c0-1.606-1.412-3.144-3.07-3.07
					c-1.663,0.075-3.07,1.349-3.07,3.07c0,0.539,0,1.078,0,1.617c0,1.606,1.412,3.144,3.07,3.07
					C516.005,616.682,517.412,615.407,517.412,613.686L517.412,613.686z"/>
			</g>
		</g>
		<g>
			<g>
				<path fill="#FFFFFF" d="M663.141,636.165c3.951,0,3.958-6.14,0-6.14C659.19,630.024,659.184,636.165,663.141,636.165
					L663.141,636.165z"/>
			</g>
		</g>
		<g>
			<g>
				<path fill="#FFFFFF" d="M1230.26,100.777c-1.312,0-2.625,0-3.937,0c-3.951,0-3.958,6.14,0,6.14c1.312,0,2.625,0,3.937,0
					C1234.211,106.917,1234.218,100.777,1230.26,100.777c-1.312,0-2.625,0-3.937,0c-3.951,0-3.958,6.14,0,6.14
					c1.312,0,2.625,0,3.937,0C1234.211,106.917,1234.218,100.777,1230.26,100.777L1230.26,100.777z"/>
			</g>
		</g>
		<g>
			<g>
				<path fill="#FFFFFF" d="M1481.312,65.696c0-2.12,0-4.239,0-6.359c0-3.951-6.14-3.958-6.14,0c0,2.119,0,4.239,0,6.359
					C1475.171,69.647,1481.312,69.653,1481.312,65.696L1481.312,65.696z"/>
			</g>
		</g>
		<g>
			<g>
				<path fill="#FFFFFF" d="M1339.247,189.363c-2.078-0.293-4.156-0.587-6.234-0.88c-1.64-0.232-3.298,0.401-3.777,2.144
					c-0.395,1.438,0.492,3.543,2.144,3.777c2.078,0.293,4.156,0.587,6.234,0.88c1.64,0.232,3.298-0.401,3.777-2.144
					C1341.787,191.701,1340.9,189.596,1339.247,189.363L1339.247,189.363z"/>
			</g>
		</g>
		<g>
			<g>
				<path fill="#FFFFFF" d="M1588.507,74.225c2.12-2.119,4.239-4.239,6.358-6.358c2.798-2.798-1.543-7.141-4.342-4.342
					c-2.119,2.12-4.239,4.239-6.358,6.359C1581.367,72.681,1585.708,77.024,1588.507,74.225L1588.507,74.225z"/>
			</g>
		</g>
	</g>
</g>
<g id="Layer_2">
	<g>
		<g>
			<linearGradient id="SVGID_5_" gradientUnits="userSpaceOnUse" x1="1455.5967" y1="1848.3458" x2="1405.3071" y2="1075.1445">
				<stop  offset="0" style="stop-color:#44164D"/>
				<stop  offset="0.1342" style="stop-color:#48174D"/>
				<stop  offset="0.2803" style="stop-color:#56184E"/>
				<stop  offset="0.432" style="stop-color:#6B1B4F"/>
				<stop  offset="0.5877" style="stop-color:#8A1F50"/>
				<stop  offset="0.7464" style="stop-color:#B12452"/>
				<stop  offset="0.9054" style="stop-color:#E02A55"/>
				<stop  offset="0.9964" style="stop-color:#FF2E56"/>
			</linearGradient>
			<polygon fill="url(#SVGID_5_)" points="0,1203.653 2850,955.728 2850,1000.282 2850,1800.071 0,1800.118 			"/>
		</g>
	</g>
	<g>
		<linearGradient id="SVGID_6_" gradientUnits="userSpaceOnUse" x1="2248.9934" y1="1093.4026" x2="2184.8027" y2="740.3511">
			<stop  offset="0" style="stop-color:#44164D"/>
			<stop  offset="0.1342" style="stop-color:#48174D"/>
			<stop  offset="0.2803" style="stop-color:#56184E"/>
			<stop  offset="0.432" style="stop-color:#6B1B4F"/>
			<stop  offset="0.5877" style="stop-color:#8A1F50"/>
			<stop  offset="0.7464" style="stop-color:#B12452"/>
			<stop  offset="0.9054" style="stop-color:#E02A55"/>
			<stop  offset="0.9964" style="stop-color:#FF2E56"/>
		</linearGradient>
		<path fill="url(#SVGID_6_)" d="M2850.198,1128.936V652.329c-67.926-18.195-137.925,7.167-204.086,42.307
			c-71.424,37.935-141.373,87.455-215.057,107.416c-62.791,17.01-127.758,12.383-188.507,45.391
			c-34.135,18.547-65.898,48.463-98.123,75.781c-68.135,57.763-413.553,129.76-581.526,144.357l0,0L2850.198,1128.936z"/>
	</g>
	<g>
		<path opacity="0.81" fill="#441F59" d="M1867.922,1296.921l-42.049-21.596c-0.786-0.403-1.4-3.318-2.252-3.318l-66.173,2.707
			c-0.997,0-1.98-0.284-2.87-0.829l-24.833-15.21c-2.818-1.726-4.23-5.644-3.364-9.333l0,0c0.26-1.109,0.72-2.133,1.348-2.999
			l30.153-38.185c4.299-5.934-18.085,5.724-24.262,8.2l0,0l-1.828,3.182l-48.065,33.146c-3.708,2.557-13.557,53.984-13.557,53.984
			l93.845,6.973c0.64,0.158,1.296,0.199,1.946,0.122l110.59-13.123l-8.257-3.546
			C1868.167,1297.041,1868.044,1296.984,1867.922,1296.921z"/>
		<path fill="#B54184" d="M1756.073,1207.587c-0.078-0.094-0.191-0.109-0.267-0.012c-2.417,3.064-38.895,49.372-33.647,46.454
			l33.728,20.659c0.029,0.018,0.029,0.028,0.062,0.026c1.195-0.047,63.236-2.478,56.069,0c-6.822,2.359-64.478,6.408-71.066,6.865
			c-0.191,0.013-0.247,0.317-0.084,0.439l24.71,18.548c0.062,0.047,0.117,0.05,0.177,0c4.017-3.367,92.449-3.541,101.588-3.55
			c0.204,0,0.242-0.333,0.062-0.448l-26.388-16.89c-0.033-0.021-0.061-0.054-0.08-0.094l-10.788-23.462
			c-0.025-0.053-0.066-0.094-0.115-0.111l-48.727-17.78c-0.031-0.011-0.059-0.032-0.082-0.059L1756.073,1207.587z"/>
	</g>
	<path fill="#701340" d="M1508.641,1323.677l-172.742,0.025c-27.229,0.004-40.598-33.159-27.754-48.351l212.049-204.08
		l-15.407,1.343l-342.956,211.625c-31.961,24.226-14.829,75.191,25.276,75.191h134.154c34.3,0,51.686,41.282,27.721,65.821
		l-365.991,374.746h723.183l6.996-266.378C1716.193,1418.563,1623.738,1323.661,1508.641,1323.677z"/>
	<linearGradient id="SVGID_7_" gradientUnits="userSpaceOnUse" x1="1442.5504" y1="1048.6613" x2="1380.6611" y2="1798.2094">
		<stop  offset="0" style="stop-color:#774DFF"/>
		<stop  offset="0.1356" style="stop-color:#6942DD"/>
		<stop  offset="0.3149" style="stop-color:#5836B6"/>
		<stop  offset="0.4928" style="stop-color:#4B2D97"/>
		<stop  offset="0.6662" style="stop-color:#422682"/>
		<stop  offset="0.8331" style="stop-color:#3D2274"/>
		<stop  offset="0.9864" style="stop-color:#3B2170"/>
	</linearGradient>
	<path fill="url(#SVGID_7_)" d="M1544.571,1323.677l-172.742,0.025c-27.229,0.004-40.598-33.159-20.979-52.041l212.049-204.08
		l-42.704,3.69l-322.433,212.968c-31.961,24.226-14.829,75.191,25.276,75.191h76.305c55.867,0,84.185,67.239,45.151,107.207
		l-325.571,333.36h723.183l6.996-266.378C1752.123,1418.563,1659.667,1323.661,1544.571,1323.677z"/>
	<g opacity="0.1">
		<g>
			<g>
				<path fill="#FFFFFF" d="M1414.559,1375.426c18.005,26.768,12.517,61.097,1.421,89.473c-9.65,24.678-29.635,43.864-46.359,63.931
					c-29.863,35.833-59.404,71.933-88.828,108.126c-6.622,8.146-13.241,16.295-19.84,24.46c-1.203,1.488,0.907,3.624,2.121,2.121
					c19.236-23.801,38.578-47.517,57.976-71.186c16.532-20.172,33.116-40.301,49.809-60.34c7.901-9.485,15.827-18.949,23.8-28.374
					c8.984-10.621,17.052-21.022,22.578-33.94c12.743-29.791,19.078-67.292-0.087-95.785
					C1416.078,1372.318,1413.478,1373.818,1414.559,1375.426L1414.559,1375.426z"/>
			</g>
		</g>
		<g>
			<g>
				<path fill="#FFFFFF" d="M1366.911,1625.007c-35.699,37.248-70.837,75.031-105.401,113.334c-1.291,1.43,0.824,3.558,2.121,2.121
					c34.565-38.304,69.702-76.086,105.401-113.334C1370.368,1625.734,1368.25,1623.61,1366.911,1625.007L1366.911,1625.007z"/>
			</g>
		</g>
		<g>
			<g>
				<path fill="#FFFFFF" d="M1217.627,1709.696c-10.797,12.382-21.595,24.763-32.393,37.145c-1.264,1.449,0.849,3.58,2.121,2.121
					c10.797-12.382,21.595-24.763,32.393-37.145C1221.012,1710.368,1218.899,1708.238,1217.627,1709.696L1217.627,1709.696z"/>
			</g>
		</g>
		<g>
			<g>
				<path fill="#FFFFFF" d="M1157.997,1711.132c-12.934,14.188-25.868,28.376-38.802,42.564c-1.298,1.424,0.817,3.552,2.121,2.121
					c12.934-14.188,25.868-28.376,38.802-42.564C1161.417,1711.829,1159.301,1709.702,1157.997,1711.132L1157.997,1711.132z"/>
			</g>
		</g>
		<g>
			<g>
				<path fill="#FFFFFF" d="M1522.016,1378.97c10.959-0.24,18.815,10.12,19.869,20.344c1.238,12.009-4.909,23.47-10.321,33.726
					c-0.9,1.706,1.688,3.224,2.59,1.514c6.251-11.847,13.61-25.877,9.942-39.684c-2.7-10.161-11.029-19.142-22.08-18.9
					C1520.088,1376.012,1520.081,1379.013,1522.016,1378.97L1522.016,1378.97z"/>
			</g>
		</g>
		<g>
			<g>
				<path fill="#FFFFFF" d="M1510.781,1487.933c-18.109,24.849-36.219,49.699-54.328,74.548c-1.138,1.562,1.463,3.061,2.59,1.514
					c18.109-24.849,36.219-49.699,54.328-74.548C1514.51,1487.885,1511.908,1486.387,1510.781,1487.933L1510.781,1487.933z"/>
			</g>
		</g>
		<g>
			<g>
				<path fill="#FFFFFF" d="M1441.124,1521.74c-3.956,5.652-7.912,11.303-11.868,16.955c-1.11,1.585,1.49,3.086,2.59,1.514
					c3.956-5.652,7.912-11.303,11.868-16.955C1444.824,1521.669,1442.224,1520.168,1441.124,1521.74L1441.124,1521.74z"/>
			</g>
		</g>
		<g>
			<g>
				<path fill="#FFFFFF" d="M1562.082,1516.919c-32.548,70.733-66.84,140.655-102.84,209.695c-0.892,1.71,1.696,3.229,2.59,1.514
					c36-69.04,70.292-138.962,102.84-209.695C1565.474,1516.692,1562.889,1515.166,1562.082,1516.919L1562.082,1516.919z"/>
			</g>
		</g>
		<g>
			<g>
				<path fill="#FFFFFF" d="M1424.165,1667.548c-6.216,10.173-12.433,20.346-18.649,30.519c-1.009,1.652,1.584,3.161,2.59,1.514
					c6.216-10.173,12.433-20.346,18.649-30.519C1427.765,1667.411,1425.172,1665.901,1424.165,1667.548L1424.165,1667.548z"/>
			</g>
		</g>
		<g>
			<g>
				<path fill="#FFFFFF" d="M1631.451,1441.314c19.646,75.147-1.384,152.6,0.246,228.709c0.041,1.928,3.042,1.934,3,0
					c-1.636-76.409,19.372-154.057-0.353-229.507C1633.856,1438.65,1630.962,1439.442,1631.451,1441.314L1631.451,1441.314z"/>
			</g>
		</g>
		<g>
			<g>
				<path fill="#FFFFFF" d="M1681.649,1620.834c-0.268,33.404-1.932,66.775-4.988,100.04c-0.177,1.922,2.825,1.91,3,0
					c3.056-33.265,4.72-66.636,4.988-100.04C1684.664,1618.903,1681.664,1618.901,1681.649,1620.834L1681.649,1620.834z"/>
			</g>
		</g>
		<g>
			<g>
				<path fill="#FFFFFF" d="M1679.982,1522.497c0,5.086,0,10.173,0,15.259c0,1.93,3,1.934,3,0c0-5.086,0-10.173,0-15.259
					C1682.982,1520.566,1679.982,1520.563,1679.982,1522.497L1679.982,1522.497z"/>
			</g>
		</g>
		<g>
			<g>
				<path fill="#FFFFFF" d="M1564.408,1674.643c-3.947,27.694-7.893,55.388-11.84,83.083c-0.269,1.888,2.621,2.704,2.893,0.798
					c3.947-27.694,7.893-55.388,11.84-83.083C1567.57,1673.552,1564.68,1672.737,1564.408,1674.643L1564.408,1674.643z"/>
			</g>
		</g>
		<g>
			<g>
				<path fill="#FFFFFF" d="M1366.515,1764.609c-1.14,2.822-2.281,5.644-3.421,8.465c-0.723,1.789,2.178,2.568,2.893,0.797
					c1.14-2.822,2.281-5.644,3.421-8.465C1370.131,1763.617,1367.23,1762.839,1366.515,1764.609L1366.515,1764.609z"/>
			</g>
		</g>
		<g>
			<g>
				<path fill="#FFFFFF" d="M1590.604,1369.231c3.953,4.524,7.905,9.049,11.858,13.573c1.273,1.457,3.387-0.672,2.121-2.121
					c-3.953-4.524-7.905-9.049-11.858-13.573C1591.453,1365.653,1589.338,1367.782,1590.604,1369.231L1590.604,1369.231z"/>
			</g>
		</g>
		<g>
			<g>
				<path fill="#FFFFFF" d="M1257.091,1331.751c-13.741,6.576-27.119-8.574-19.325-21.528c0.998-1.658-1.595-3.168-2.59-1.514
					c-9.442,15.693,7.057,33.469,23.43,25.633C1260.346,1333.508,1258.826,1330.921,1257.091,1331.751L1257.091,1331.751z"/>
			</g>
		</g>
		<g>
			<g>
				<path fill="#FFFFFF" d="M1265.621,1277.918c29.334-23.804,58.668-47.607,88.002-71.411c1.5-1.217-0.634-3.328-2.121-2.121
					c-29.334,23.803-58.668,47.607-88.002,71.411C1262,1277.013,1264.134,1279.124,1265.621,1277.918L1265.621,1277.918z"/>
			</g>
		</g>
		<g>
			<g>
				<path fill="#FFFFFF" d="M1374.182,1214.665c2.504-3.89,5.768-7.111,9.685-9.57c1.631-1.024,0.127-3.621-1.514-2.59
					c-4.355,2.734-7.979,6.322-10.762,10.646C1370.544,1214.78,1373.14,1216.285,1374.182,1214.665L1374.182,1214.665z"/>
			</g>
		</g>
		<g>
			<g>
				<path fill="#FFFFFF" d="M1435.784,1156.774c19.452-14.952,38.904-29.903,58.356-44.855c1.51-1.16,0.017-3.767-1.514-2.59
					c-19.452,14.952-38.904,29.903-58.356,44.855C1432.76,1155.344,1434.253,1157.951,1435.784,1156.774L1435.784,1156.774z"/>
			</g>
		</g>
		<g>
			<g>
				<path fill="#FFFFFF" d="M1497.111,1117.685c-9.629,8.453-19.259,16.905-28.888,25.358c-1.454,1.276,0.675,3.391,2.121,2.121
					c9.629-8.453,19.259-16.905,28.888-25.358C1500.686,1118.531,1498.557,1116.416,1497.111,1117.685L1497.111,1117.685z"/>
			</g>
		</g>
		<g>
			<g>
				<path fill="#FFFFFF" d="M1526.344,1078.481c-3.599,1.715-6.57,4.311-8.858,7.566c-1.113,1.583,1.487,3.083,2.59,1.514
					c1.995-2.838,4.658-5.001,7.781-6.489C1529.6,1080.241,1528.08,1077.653,1526.344,1078.481L1526.344,1078.481z"/>
			</g>
		</g>
		<g>
			<g>
				<path fill="#FFFFFF" d="M1349.639,1244.909c-14.662,15.497-26.987,33.114-36.255,52.344c-1.164,2.415-2.849,4.842-2.555,7.613
					c0.283,2.668,1.942,5.282,3.4,7.446c3.302,4.902,7.651,10.196,12.815,13.226c1.669,0.979,3.18-1.613,1.514-2.59
					c-4.822-2.829-9.044-8.005-12.052-12.613c-1.135-1.739-2.964-4.283-2.753-6.522c0.375-3.971,4.247-9.216,6.112-12.701
					c8.603-16.069,19.371-30.846,31.894-44.082C1353.087,1245.628,1350.969,1243.503,1349.639,1244.909L1349.639,1244.909z"/>
			</g>
		</g>
		<g>
			<g>
				<path fill="#FFFFFF" d="M1336.992,1340.47c6.78,1.705,13.559,3.409,20.339,5.114c1.873,0.471,2.672-2.422,0.797-2.893
					c-6.78-1.705-13.559-3.409-20.339-5.114C1335.917,1337.106,1335.118,1339.998,1336.992,1340.47L1336.992,1340.47z"/>
			</g>
		</g>
		<g>
			<g>
				<path fill="#FFFFFF" d="M1421.74,1348.335c20.18-1.982,40.452-1.551,60.519,1.376c1.889,0.275,2.704-2.615,0.798-2.893
					c-20.34-2.966-40.857-3.492-61.317-1.483C1419.836,1345.521,1419.817,1348.523,1421.74,1348.335L1421.74,1348.335z"/>
			</g>
		</g>
	</g>
	<g>
		<g>
			<path fill="#1A1452" d="M1509.356,1320.253c0,0-55.661-151.622-55.661-149.67c0,1.953,61.013,149.67,61.013,149.67H1509.356z"/>
			<polygon fill="#1A1452" points="1466.808,1160.171 1523.271,1318.626 1528.891,1318.626 			"/>
			<polygon fill="#1A1452" points="1489.286,1150.41 1531.3,1318.626 1536.919,1318.626 			"/>
			<polygon fill="#1A1452" points="1509.891,1136.745 1542.806,1318.626 1547.891,1318.626 			"/>
			<polygon fill="#1A1452" points="1435.231,1189.78 1493.568,1318.626 1500.258,1318.626 			"/>
			<polygon fill="#1A1452" points="1425.597,1200.843 1484.202,1318.626 1489.286,1318.626 			"/>
			<path fill="#1A1452" d="M1551.102,1318.626c-0.535,0.976-28.366-194.571-28.366-194.571l32.915,194.571H1551.102z"/>
			<polygon fill="#1A1452" points="1536.919,1128.936 1557.792,1318.63 1563.144,1318.63 			"/>
			<polygon fill="#1A1452" points="1560.468,1133.166 1567.158,1320.253 1571.975,1320.253 			"/>
			<path fill="#1A1452" d="M1590.707,1179.693"/>
			<polygon fill="#1A1452" points="1584.819,1136.745 1575.186,1318.63 1580.003,1318.63 			"/>
			<polygon fill="#1A1452" points="1601.678,1140.324 1585.89,1320.253 1591.777,1318.63 			"/>
			<polygon fill="#1A1452" points="1417.837,1214.833 1475.371,1320.253 1481.258,1320.253 			"/>
			<polygon fill="#1A1452" points="1408.203,1227.687 1461.456,1320.253 1467.744,1318.63 			"/>
			<polygon fill="#1A1452" points="1395.894,1247.37 1444.865,1320.253 1451.019,1320.253 			"/>
			<polygon fill="#1A1452" points="1393.485,1282.185 1423.456,1320.253 1429.543,1320.253 			"/>
			<polygon fill="#1A1452" points="1386.26,1297.802 1406.33,1320.253 1411.514,1318.63 			"/>
		</g>
		<g>
			<path fill="#1A1452" d="M1648.778,1320.666c0,0,55.661-151.622,55.661-149.67c0,1.952-61.013,149.67-61.013,149.67H1648.778z"/>
			<polygon fill="#1A1452" points="1691.327,1160.584 1634.863,1319.039 1629.243,1319.039 			"/>
			<polygon fill="#1A1452" points="1668.848,1150.823 1626.835,1319.039 1621.215,1319.039 			"/>
			<polygon fill="#1A1452" points="1648.243,1137.158 1615.328,1319.039 1610.244,1319.039 			"/>
			<polygon fill="#1A1452" points="1722.903,1190.193 1664.567,1319.039 1657.877,1319.039 			"/>
			<polygon fill="#1A1452" points="1732.537,1201.256 1673.933,1319.039 1668.848,1319.039 			"/>
			<path fill="#1A1452" d="M1607.032,1319.039c0.536,0.976,28.366-194.571,28.366-194.571l-32.915,194.571H1607.032z"/>
			<polygon fill="#1A1452" points="1621.215,1129.349 1600.343,1319.043 1594.991,1319.043 			"/>
			<polygon fill="#1A1452" points="1597.666,1133.579 1590.977,1320.666 1586.16,1320.666 			"/>
			<path fill="#1A1452" d="M1567.428,1180.107"/>
			<polygon fill="#1A1452" points="1573.315,1137.158 1582.949,1319.043 1578.132,1319.043 			"/>
			<polygon fill="#1A1452" points="1556.456,1140.737 1572.245,1320.666 1566.357,1319.043 			"/>
			<polygon fill="#1A1452" points="1740.298,1215.247 1682.763,1320.666 1676.876,1320.666 			"/>
			<polygon fill="#1A1452" points="1749.931,1228.101 1696.679,1320.666 1690.39,1319.043 			"/>
			<polygon fill="#1A1452" points="1762.241,1247.784 1713.27,1320.666 1707.115,1320.666 			"/>
			<polygon fill="#1A1452" points="1764.649,1282.598 1734.678,1320.666 1728.591,1320.666 			"/>
			<polygon fill="#1A1452" points="1771.874,1298.216 1751.804,1320.666 1746.62,1319.043 			"/>
		</g>
	</g>
	<g>
		<g>
			<path fill="#1A1452" d="M850.465,1501.034c0,0-44.035-151.622-44.035-149.67s48.269,149.67,48.269,149.67H850.465z"/>
			<polygon fill="#1A1452" points="816.804,1340.953 861.473,1499.407 865.919,1499.407 			"/>
			<polygon fill="#1A1452" points="834.586,1331.191 867.824,1499.407 872.27,1499.407 			"/>
			<polygon fill="#1A1452" points="850.888,1317.526 876.927,1499.407 880.95,1499.407 			"/>
			<polygon fill="#1A1452" points="791.823,1370.561 837.974,1499.407 843.266,1499.407 			"/>
			<polygon fill="#1A1452" points="784.201,1381.623 830.564,1499.407 834.586,1499.407 			"/>
			<path fill="#1A1452" d="M883.49,1499.407c-0.423,0.976-22.44-194.571-22.44-194.571l26.039,194.571H883.49z"/>
			<polygon fill="#1A1452" points="872.27,1309.717 888.783,1499.411 893.017,1499.411 			"/>
			<polygon fill="#1A1452" points="890.9,1313.947 896.193,1501.034 900.003,1501.034 			"/>
			<path fill="#1A1452" d="M914.822,1360.475"/>
			<polygon fill="#1A1452" points="910.165,1317.526 902.543,1499.411 906.354,1499.411 			"/>
			<polygon fill="#1A1452" points="923.502,1321.105 911.012,1501.034 915.669,1499.411 			"/>
			<polygon fill="#1A1452" points="778.062,1395.615 823.578,1501.034 828.236,1501.034 			"/>
			<polygon fill="#1A1452" points="770.441,1408.469 812.57,1501.034 817.544,1499.411 			"/>
			<polygon fill="#1A1452" points="760.702,1428.151 799.444,1501.034 804.313,1501.034 			"/>
			<polygon fill="#1A1452" points="758.797,1462.966 782.508,1501.034 787.323,1501.034 			"/>
			<polygon fill="#1A1452" points="753.081,1478.584 768.958,1501.034 773.06,1499.411 			"/>
		</g>
		<g>
			<path fill="#1A1452" d="M960.764,1501.448c0,0,44.034-151.622,44.034-149.67c0,1.953-48.268,149.67-48.268,149.67H960.764z"/>
			<polygon fill="#1A1452" points="994.425,1341.366 949.755,1499.821 945.309,1499.821 			"/>
			<polygon fill="#1A1452" points="976.641,1331.605 943.404,1499.821 938.958,1499.821 			"/>
			<polygon fill="#1A1452" points="960.34,1317.939 934.301,1499.821 930.279,1499.821 			"/>
			<polygon fill="#1A1452" points="1019.406,1370.974 973.254,1499.821 967.962,1499.821 			"/>
			<polygon fill="#1A1452" points="1027.027,1382.037 980.664,1499.821 976.641,1499.821 			"/>
			<path fill="#1A1452" d="M927.738,1499.821c0.423,0.976,22.441-194.571,22.441-194.571l-26.039,194.571H927.738z"/>
			<polygon fill="#1A1452" points="938.958,1310.13 922.445,1499.824 918.211,1499.824 			"/>
			<polygon fill="#1A1452" points="920.328,1314.36 915.036,1501.448 911.225,1501.448 			"/>
			<path fill="#1A1452" d="M896.406,1360.888"/>
			<polygon fill="#1A1452" points="901.063,1317.939 908.685,1499.824 904.874,1499.824 			"/>
			<polygon fill="#1A1452" points="887.726,1321.518 900.217,1501.448 895.559,1499.824 			"/>
			<polygon fill="#1A1452" points="1033.166,1396.028 987.65,1501.448 982.993,1501.448 			"/>
			<polygon fill="#1A1452" points="1040.788,1408.882 998.659,1501.448 993.684,1499.824 			"/>
			<polygon fill="#1A1452" points="1050.526,1428.565 1011.784,1501.448 1006.915,1501.448 			"/>
			<polygon fill="#1A1452" points="1052.431,1463.379 1028.721,1501.448 1023.905,1501.448 			"/>
			<polygon fill="#1A1452" points="1058.147,1478.997 1042.27,1501.448 1038.168,1499.824 			"/>
		</g>
	</g>
	<g>
		<path opacity="0.81" fill="#441F59" d="M1086.683,1588.585l-42.049-21.596c-0.786-0.404-1.4-3.319-2.252-3.319l-66.173,2.707
			c-0.997,0-1.98-0.284-2.87-0.829l-24.833-15.211c-2.818-1.726-4.23-5.644-3.364-9.333l0,0c0.26-1.109,0.721-2.133,1.347-2.999
			l30.153-38.185c4.299-5.934-18.086,5.725-24.263,8.2l0,0l-1.828,3.183l-48.065,33.146c-3.708,2.557-4.465,8.661-1.542,12.434
			l24.879,32.116c0.427,0.551,0.916,1.025,1.452,1.409l2.79,1.996l2.865,0.707l0.004,0.002v-0.001l49.839,12.293
			c0.64,0.158,1.296,0.199,1.946,0.122l110.59-13.123l-8.257-3.546C1086.927,1588.705,1086.804,1588.647,1086.683,1588.585z"/>
		<path fill="#B54184" d="M974.833,1499.25c-0.077-0.094-0.191-0.109-0.267-0.013c-2.417,3.065-38.895,49.372-33.647,46.454
			l33.728,20.658c0.029,0.018,0.029,0.028,0.062,0.026c1.195-0.047,63.236-2.478,56.069,0c-6.822,2.359-64.478,6.408-71.067,6.865
			c-0.191,0.014-0.246,0.317-0.084,0.439l24.71,18.548c0.062,0.047,0.115,0.052,0.175,0.001c3.999-3.368,92.449-3.542,101.59-3.551
			c0.204,0,0.242-0.333,0.062-0.448l-26.388-16.89c-0.034-0.021-0.061-0.054-0.08-0.094l-10.788-23.461
			c-0.025-0.054-0.066-0.094-0.115-0.112l-48.727-17.779c-0.031-0.011-0.059-0.032-0.082-0.059L974.833,1499.25z"/>
	</g>
	<g>
		<path opacity="0.81" fill="#441F59" d="M2652.831,1143.347l21.587-11.087c0.403-0.207,0.719-1.704,1.156-1.704l33.971,1.39
			c0.512,0,1.016-0.146,1.473-0.426l12.749-7.808c1.447-0.886,2.172-2.897,1.727-4.792l0,0c-0.134-0.569-0.37-1.095-0.692-1.54
			l-15.48-19.603c-2.207-3.046,9.284,2.939,12.456,4.21l0,0l0.938,1.634l24.675,17.016c1.904,1.313,2.292,4.447,0.792,6.383
			l-12.772,16.488c-0.219,0.283-0.47,0.526-0.745,0.723l-1.433,1.025l-1.471,0.363l-0.002,0.001v0l-25.586,6.311
			c-0.329,0.081-0.666,0.102-0.999,0.063l-56.774-6.737l4.239-1.821C2652.705,1143.409,2652.768,1143.379,2652.831,1143.347z"/>
		<path fill="#B54184" d="M2710.251,1097.485c0.04-0.048,0.098-0.056,0.137-0.006c1.241,1.573,19.968,25.346,17.273,23.848
			l-17.315,10.605c-0.015,0.009-0.015,0.014-0.032,0.014c-0.613-0.024-32.464-1.272-28.784,0c3.502,1.211,33.102,3.29,36.484,3.524
			c0.098,0.007,0.127,0.163,0.043,0.226l-12.686,9.522c-0.032,0.024-0.06,0.026-0.091,0c-2.062-1.728-47.461-1.818-52.152-1.822
			c-0.105,0-0.125-0.171-0.032-0.23l13.547-8.671c0.017-0.011,0.031-0.028,0.041-0.048l5.538-12.044
			c0.013-0.028,0.034-0.049,0.059-0.058l25.015-9.127c0.016-0.006,0.031-0.016,0.042-0.031L2710.251,1097.485z"/>
	</g>
	<g>
		<linearGradient id="SVGID_8_" gradientUnits="userSpaceOnUse" x1="696.4163" y1="1196.801" x2="719.1079" y2="940.7104">
			<stop  offset="0" style="stop-color:#44164D"/>
			<stop  offset="0.1342" style="stop-color:#48174D"/>
			<stop  offset="0.2803" style="stop-color:#56184E"/>
			<stop  offset="0.432" style="stop-color:#6B1B4F"/>
			<stop  offset="0.5877" style="stop-color:#8A1F50"/>
			<stop  offset="0.7464" style="stop-color:#B12452"/>
			<stop  offset="0.9054" style="stop-color:#E02A55"/>
			<stop  offset="0.9964" style="stop-color:#FF2E56"/>
		</linearGradient>
		<path fill="url(#SVGID_8_)" d="M1432.749,1078.892C1068.66,1005.79,259.911,968.248,194.493,950.885
			C122.087,931.668,60.142,899.201,0,864.225v375.878L1432.749,1078.892L1432.749,1078.892z"/>
	</g>
	<g>
		<g>
			<polygon fill="#701C91" points="499.916,-0.104 439.556,1799.998 539.651,1796.969 548.799,958.296 550.237,225.367 
				546.114,-0.104 			"/>
			<polygon opacity="0.37" fill="#480E1A" points="512.778,-0.197 499.916,-0.104 485.287,436.176 468.987,898.29 460.094,1187.497 
				452.505,1413.822 449.926,1490.753 449.007,1518.162 439.556,1799.998 487.981,1798.532 501.022,997.389 508.175,581.844 
				508.948,241.141 			"/>
			<path opacity="0.35" fill="#480E1A" d="M549.57,628.727c0,0-23.722-0.125-42.95,5.359c-19.227,5.483-28.668,10.022-28.668,10.022
				l-0.721,15.917c0,0,16.669-14.065,33.788-18.523c20.823-5.422,38.263-6.313,38.263-6.313L549.57,628.727z"/>
			<path opacity="0.35" fill="#480E1A" d="M475.111,724.285c0,0,11.272-13.051,35.579-7.451
				c20.37,4.693,33.338,13.558,38.522,10.191l-0.049,3.538c0,0-18.667-10.494-42.872-10.272
				c-24.205,0.222-31.364,8.129-31.364,8.129L475.111,724.285z"/>
			<path opacity="0.35" fill="#480E1A" d="M442.895,1701.76l-0.185,4.136c-0.923,1,29.703-3.532,43.878-2.475
				c14.176,1.057,53.633,13.43,53.633,13.43l-0.062-5.561c0,0-26.665-9.854-53.294-14.073
				C467.904,1694.213,442.895,1701.76,442.895,1701.76z"/>
			<path opacity="0.35" fill="#480E1A" d="M549.328,806.788c0,0-1.838-0.232-4.778-0.611c-7.026-0.906-19.152-2.504-20.649-2.926
				c-2.123-0.599,0.041,14.087,25.239,27.472L549.328,806.788z"/>
			<path opacity="0.35" fill="#480E1A" d="M466.681,975.929l-0.167,5.613c0,0,8.02,17.365,37.538,23.147
				c29.518,5.782,44.189,4.722,44.189,4.722l0.242-22.165c0,0-29.234,10.253-44.016,8.138
				C489.685,993.269,472.079,988.045,466.681,975.929z"/>
			<path opacity="0.35" fill="#480E1A" d="M460.696,1168.474c0,0,2.499,9.416,31.906,17.265c29.408,7.849,53.756-1.064,53.756-1.064
				l-0.157,11.797c0,0-33.979,5.03-52.542-1.89c-18.562-6.919-33.194-20.939-33.194-20.939L460.696,1168.474z"/>
			<path opacity="0.35" fill="#480E1A" d="M456.102,1306.566c0,0,19.502,12.206,44.056,18.318
				c24.554,6.111,44.571,8.943,44.571,8.943l-0.354,17.658c0,0-23.959-5.303-49.537-12.489
				c-25.578-7.186-38.918-26.996-38.918-26.996L456.102,1306.566z"/>
			<path opacity="0.35" fill="#480E1A" d="M446.51,1594.721c0,0,10.839,5.302,36.883,9.398c26.045,4.097,58.578-1.369,58.578-1.369
				l-0.074,8.335c0,0-36.733-0.961-58.665-3.348c-21.933-2.387-36.593-9.746-36.593-9.746L446.51,1594.721z"/>
			<path opacity="0.35" fill="#480E1A" d="M547.872,1040.855l-0.312,31.024c0,0-21.308-12.168-22.439-18.943
				C523.991,1046.161,537.281,1037.345,547.872,1040.855z"/>
			<path opacity="0.35" fill="#480E1A" d="M461.982,1131.205l-1.131,33.729c0,0,16.42-3.519,18.243-12.253
				C480.916,1143.948,475.073,1126.524,461.982,1131.205z"/>
			<path opacity="0.35" fill="#480E1A" d="M450.384,1480.461l-1.509,44.609c0,0,21.621-2.803,23.789-19.292
				C474.832,1489.291,460.005,1473.577,450.384,1480.461z"/>
			<path opacity="0.35" fill="#480E1A" d="M481.919,530.631c0,0,29.132-2,40.897,1.554c11.765,3.554,26.184,9.155,26.725,10.729
				l-0.011,6.391c0,0-11.782-9.173-28.752-12.537c-16.97-3.363-39.092-0.903-39.092-0.903L481.919,530.631z"/>
			<path opacity="0.35" fill="#561424" d="M548.46,128.181c0,0-15.222-5.211-29.346-1.088c-14.124,4.124-23.78,11.092-23.78,11.092
				l-0.134,3.016c0,0,9.678-8.787,26.919-11.923c17.241-3.136,26.39,1.582,26.39,1.582L548.46,128.181z"/>
			<path opacity="0.35" fill="#480E1A" d="M492.532,222.952c0,0,31.791,1.726,39.856,4.103c8.065,2.378,17.624,7.92,17.624,7.92
				l0.066,6.451c0,0-10.671-6.854-28.944-9.361c-18.273-2.507-28.959-1.101-28.959-1.101L492.532,222.952z"/>
			<path opacity="0.35" fill="#561424" d="M490.239,313.011l-0.282,8.25c0,0,25.056-5.84,36.519-2.815
				c11.463,3.025,23.112,8.758,23.112,8.758l-0.049-5.577C549.54,321.628,513.87,302.517,490.239,313.011z"/>
			<path opacity="0.35" fill="#561424" d="M493.721,184.642c1.973-0.34,13.614,1.718,11.168,8.357
				c-2.445,6.639-11.986,16.012-11.986,16.012L493.721,184.642z"/>
			<path opacity="0.35" fill="#561424" d="M547.291,64.257l0.099,5.391c0,0-34.423,1.021-50.149,10.018l0.58-12.995
				C497.82,66.67,533.084,61.501,547.291,64.257z"/>
		</g>
		<polygon fill="#55156E" points="550.143,273.274 550.038,326.911 570.985,313.218 557.68,269.866 		"/>
		<polygon fill="#701C91" points="821.557,-0.201 810.063,-0.201 728.585,192.601 557.68,269.866 570.985,313.218 749.069,196.809 
					"/>
		<g>
			<path fill="#701C91" d="M403.374,177.044L357.973-0.104h-5.49l40.491,180.27l80.351,77.79c0,0,4.858-19.875,7.239-29.603
				L403.374,177.044z"/>
			<polygon fill="#55156E" points="492,235.953 480.564,228.352 473.325,257.955 490.699,274.774 			"/>
		</g>
		<polygon fill="#55156E" points="548.159,111.71 548.842,149.083 561.336,132.41 554.385,105.019 		"/>
		<path fill="#701C91" d="M652.194-0.104l-97.809,105.123c0,0,4.419,18.26,6.951,27.391L663.248-0.104H652.194z"/>
	</g>
	<g>
		<g>
			<polygon fill="#701C91" points="2233.38,-0.3 2293.739,1799.802 2193.645,1796.774 2184.496,958.101 2183.059,225.171 
				2187.181,-0.3 			"/>
			<polygon opacity="0.37" fill="#480E1A" points="2220.518,-0.393 2233.38,-0.3 2248.009,435.98 2264.308,898.095 
				2273.201,1187.302 2280.79,1413.626 2283.37,1490.557 2284.289,1517.966 2293.739,1799.802 2245.314,1798.337 2232.273,997.194 
				2225.12,581.648 2224.347,240.946 			"/>
			<path opacity="0.35" fill="#480E1A" d="M2183.726,628.532c0,0,23.722-0.125,42.949,5.358
				c19.227,5.483,28.668,10.023,28.668,10.023l0.722,15.917c0,0-16.669-14.065-33.788-18.523
				c-20.823-5.422-38.263-6.313-38.263-6.313L2183.726,628.532z"/>
			<path opacity="0.35" fill="#480E1A" d="M2258.184,724.09c0,0-11.272-13.052-35.579-7.451
				c-20.37,4.693-33.338,13.557-38.521,10.191l0.049,3.538c0,0,18.667-10.494,42.872-10.272c24.205,0.222,31.365,8.129,31.365,8.129
				L2258.184,724.09z"/>
			<path opacity="0.35" fill="#480E1A" d="M2290.4,1701.565l0.184,4.136c0.923,1-29.702-3.532-43.878-2.475
				c-14.176,1.057-53.632,13.43-53.632,13.43l0.062-5.561c0,0,26.665-9.854,53.294-14.073
				C2265.391,1694.017,2290.4,1701.565,2290.4,1701.565z"/>
			<path opacity="0.35" fill="#480E1A" d="M2183.967,806.592c0,0,1.838-0.232,4.778-0.611c7.026-0.906,19.152-2.504,20.649-2.926
				c2.123-0.599-0.042,14.087-25.239,27.472L2183.967,806.592z"/>
			<path opacity="0.35" fill="#480E1A" d="M2266.614,975.734l0.167,5.612c0,0-8.02,17.366-37.538,23.148
				c-29.518,5.782-44.19,4.722-44.19,4.722l-0.241-22.165c0,0,29.234,10.253,44.016,8.138
				C2243.61,993.073,2261.217,987.849,2266.614,975.734z"/>
			<path opacity="0.35" fill="#480E1A" d="M2272.599,1168.278c0,0-2.499,9.416-31.906,17.265
				c-29.408,7.849-53.757-1.064-53.757-1.064l0.158,11.797c0,0,33.979,5.03,52.542-1.89c18.562-6.919,33.194-20.939,33.194-20.939
				L2272.599,1168.278z"/>
			<path opacity="0.35" fill="#480E1A" d="M2277.194,1306.371c0,0-19.502,12.206-44.056,18.317
				c-24.554,6.111-44.571,8.944-44.571,8.944l0.354,17.658c0,0,23.959-5.302,49.537-12.488
				c25.578-7.186,38.917-26.996,38.917-26.996L2277.194,1306.371z"/>
			<path opacity="0.35" fill="#480E1A" d="M2286.785,1594.525c0,0-10.838,5.302-36.883,9.398
				c-26.045,4.097-58.578-1.369-58.578-1.369l0.074,8.335c0,0,36.733-0.961,58.666-3.348c21.933-2.387,36.593-9.745,36.593-9.745
				L2286.785,1594.525z"/>
			<path opacity="0.35" fill="#480E1A" d="M2185.423,1040.66l0.312,31.024c0,0,21.308-12.168,22.439-18.943
				C2209.305,1045.966,2196.014,1037.15,2185.423,1040.66z"/>
			<path opacity="0.35" fill="#480E1A" d="M2271.314,1131.01l1.131,33.729c0,0-16.42-3.519-18.243-12.253
				C2252.379,1143.752,2258.223,1126.329,2271.314,1131.01z"/>
			<path opacity="0.35" fill="#480E1A" d="M2282.911,1480.265l1.509,44.61c0,0-21.621-2.803-23.789-19.292
				C2258.463,1489.095,2273.29,1473.381,2282.911,1480.265z"/>
			<path opacity="0.35" fill="#480E1A" d="M2251.377,530.435c0,0-29.133-2-40.897,1.554c-11.765,3.554-26.184,9.155-26.725,10.729
				l0.011,6.391c0,0,11.782-9.173,28.752-12.537c16.97-3.364,39.092-0.903,39.092-0.903L2251.377,530.435z"/>
			<path opacity="0.35" fill="#561424" d="M2184.835,127.985c0,0,15.222-5.211,29.346-1.088c14.125,4.124,23.78,11.092,23.78,11.092
				l0.135,3.016c0,0-9.678-8.786-26.919-11.923c-17.241-3.136-26.39,1.582-26.39,1.582L2184.835,127.985z"/>
			<path opacity="0.35" fill="#480E1A" d="M2240.763,222.756c0,0-31.791,1.726-39.856,4.104c-8.065,2.378-17.624,7.919-17.624,7.919
				l-0.066,6.451c0,0,10.671-6.854,28.944-9.361c18.274-2.507,28.959-1.101,28.959-1.101L2240.763,222.756z"/>
			<path opacity="0.35" fill="#561424" d="M2243.056,312.816l0.281,8.25c0,0-25.056-5.84-36.519-2.815
				c-11.463,3.025-23.113,8.758-23.113,8.758l0.049-5.577C2183.755,321.432,2219.425,302.321,2243.056,312.816z"/>
			<path opacity="0.35" fill="#561424" d="M2239.574,184.447c-1.973-0.34-13.614,1.718-11.168,8.357
				c2.446,6.639,11.987,16.012,11.987,16.012L2239.574,184.447z"/>
			<path opacity="0.35" fill="#561424" d="M2186.004,64.061l-0.099,5.391c0,0,34.423,1.022,50.149,10.018l-0.579-12.995
				C2235.475,66.474,2200.212,61.306,2186.004,64.061z"/>
		</g>
		<polygon fill="#55156E" points="2183.163,278.196 2183.258,326.715 2163.339,309.668 2174.394,273.649 		"/>
		<path fill="#701C91" d="M2174.394,273.649l-56.739-26.925c-12.815,5.707-14.219,6.206-27.328,11.035l73.012,51.909
			L2174.394,273.649z"/>
		<g>
			<path fill="#701C91" d="M2329.921,176.849L2375.322-0.3l5.711,0.103l-40.711,180.167l-80.351,77.79
				c0,0-4.858-19.875-7.239-29.603L2329.921,176.849z"/>
			<polygon fill="#55156E" points="2241.295,235.758 2252.731,228.156 2259.97,257.759 2242.597,274.578 			"/>
		</g>
		<polygon fill="#55156E" points="2185.136,111.514 2184.453,148.888 2171.96,132.214 2178.911,104.823 		"/>
		<path fill="#701C91" d="M2164.519,89.355l14.392,15.468c0,0-4.418,18.261-6.951,27.391l-10.438-15.447L2164.519,89.355z"/>
	</g>
	<g>
		<g>
			<polygon fill="#701C91" points="178.94,-0.201 134.199,1571.012 208.136,1568.378 214.893,838.891 215.955,201.38 
				212.825,-0.197 			"/>
			<polygon opacity="0.37" fill="#480E1A" points="188.358,-0.197 178.94,-0.201 167.978,384.744 155.938,786.697 149.37,1038.252 
				143.764,1235.112 141.858,1302.027 141.18,1325.868 134.199,1571.012 169.969,1569.738 179.602,872.894 184.886,511.448 
				185.457,215.101 			"/>
			<path opacity="0.35" fill="#480E1A" d="M215.463,552.227c0,0-17.523-0.108-31.725,4.661c-14.203,4.769-21.176,8.718-21.176,8.718
				l-0.533,13.845c0,0,12.313-12.234,24.958-16.112c15.381-4.717,28.264-5.491,28.264-5.491L215.463,552.227z"/>
			<path opacity="0.35" fill="#480E1A" d="M160.462,635.345c0,0,8.327-11.352,26.282-6.481c15.046,4.083,24.626,11.792,28.455,8.864
				l-0.036,3.078c0,0-13.789-9.128-31.669-8.935c-17.879,0.193-23.168,7.071-23.168,7.071L160.462,635.345z"/>
			<path opacity="0.35" fill="#480E1A" d="M136.665,1485.564l-0.136,3.597c-0.682,0.87,21.94-3.072,32.412-2.153
				c10.471,0.919,39.617,11.682,39.617,11.682l-0.046-4.837c0,0-19.697-8.571-39.367-12.241
				C155.138,1478.999,136.665,1485.564,136.665,1485.564z"/>
			<path opacity="0.35" fill="#480E1A" d="M215.284,707.107c0,0-1.358-0.202-3.53-0.531c-5.19-0.788-14.147-2.178-15.253-2.545
				c-1.568-0.521,0.031,12.253,18.644,23.896L215.284,707.107z"/>
			<path opacity="0.35" fill="#480E1A" d="M154.235,854.228l-0.123,4.882c0,0,5.924,15.104,27.728,20.134
				c21.804,5.029,32.641,4.107,32.641,4.107l0.178-19.279c0,0-21.594,8.918-32.513,7.078
				C171.228,869.31,158.222,864.766,154.235,854.228z"/>
			<path opacity="0.35" fill="#480E1A" d="M149.814,1021.706c0,0,1.846,8.19,23.568,15.017c21.723,6.828,39.709-0.926,39.709-0.926
				l-0.117,10.261c0,0-25.099,4.375-38.811-1.644c-13.711-6.019-24.519-18.213-24.519-18.213L149.814,1021.706z"/>
			<path opacity="0.35" fill="#480E1A" d="M146.42,1141.82c0,0,14.406,10.617,32.543,15.932c18.138,5.316,32.923,7.779,32.923,7.779
				l-0.262,15.359c0,0-17.698-4.612-36.591-10.863c-18.894-6.25-28.748-23.481-28.748-23.481L146.42,1141.82z"/>
			<path opacity="0.35" fill="#480E1A" d="M139.336,1392.46c0,0,8.006,4.612,27.244,8.175c19.238,3.563,43.27-1.191,43.27-1.191
				l-0.054,7.25c0,0-27.134-0.836-43.335-2.912c-16.201-2.077-27.03-8.477-27.03-8.477L139.336,1392.46z"/>
			<path opacity="0.35" fill="#480E1A" d="M214.209,910.701l-0.23,26.985c0,0-15.74-10.583-16.575-16.476
				C196.568,915.317,206.385,907.649,214.209,910.701z"/>
			<path opacity="0.35" fill="#480E1A" d="M150.764,989.289l-0.836,29.338c0,0,12.129-3.061,13.475-10.657
				C164.75,1000.372,160.434,985.217,150.764,989.289z"/>
			<path opacity="0.35" fill="#480E1A" d="M142.197,1293.075l-1.115,38.802c0,0,15.971-2.438,17.572-16.78
				C160.256,1300.756,149.304,1287.088,142.197,1293.075z"/>
			<path opacity="0.35" fill="#480E1A" d="M165.491,466.902c0,0,21.519-1.74,30.209,1.352c8.69,3.091,19.341,7.963,19.741,9.332
				l-0.009,5.559c0,0-8.703-7.979-21.238-10.905c-12.535-2.926-28.875-0.785-28.875-0.785L165.491,466.902z"/>
			<path opacity="0.35" fill="#561424" d="M214.643,116.847c0,0-11.244-4.533-21.677-0.946c-10.433,3.587-17.565,9.648-17.565,9.648
				l-0.099,2.624c0,0,7.149-7.643,19.885-10.371c12.735-2.728,19.494,1.375,19.494,1.375L214.643,116.847z"/>
			<path opacity="0.35" fill="#480E1A" d="M173.331,199.28c0,0,23.483,1.501,29.44,3.569c5.958,2.068,13.018,6.888,13.018,6.888
				l0.049,5.611c0,0-7.882-5.962-21.38-8.142c-13.498-2.18-21.391-0.957-21.391-0.957L173.331,199.28z"/>
			<path opacity="0.35" fill="#561424" d="M171.637,277.614l-0.208,7.176c0,0,18.508-5.08,26.975-2.449
				c8.467,2.631,17.072,7.618,17.072,7.618l-0.036-4.85C215.44,285.109,189.092,268.486,171.637,277.614z"/>
			<path opacity="0.35" fill="#561424" d="M174.208,165.958c1.457-0.296,10.056,1.494,8.25,7.269
				c-1.806,5.775-8.854,13.928-8.854,13.928L174.208,165.958z"/>
			<path opacity="0.35" fill="#561424" d="M213.779,61.245l0.073,4.689c0,0-25.427,0.889-37.043,8.714l0.428-11.304
				C177.237,63.344,203.285,58.848,213.779,61.245z"/>
		</g>
		<g>
			<path fill="#701C91" d="M107.472,159.349L72.748-0.197h-4.389L99.79,162.063l59.353,67.662c0,0,3.589-17.287,5.347-25.749
				L107.472,159.349z"/>
			<polygon fill="#55156E" points="172.938,210.589 164.49,203.976 159.143,229.726 171.976,244.355 			"/>
		</g>
		<polygon fill="#55156E" points="214.42,102.52 214.925,135.028 224.154,120.525 219.019,96.7 		"/>
		<path fill="#701C91" d="M295.585-0.201L219.019,96.7c0,0,3.264,15.883,5.134,23.825L302.841-0.197L295.585-0.201z"/>
	</g>
	<g>
		<g>
			<polygon fill="#701C91" points="2683.073,-0.397 2759.441,1630.07 2682.364,1628.53 2661.384,868.662 2648.096,204.522 
				2647.521,0.158 			"/>
			<polygon fill="#55156E" points="2673.174,-0.327 2683.073,-0.397 2701.582,394.77 2721.806,813.326 2733.456,1075.29 
				2743.058,1280.287 2746.322,1349.968 2747.484,1374.794 2759.441,1630.07 2722.152,1629.325 2698.8,903.512 2686.389,527.044 
				2680.132,218.32 			"/>
			<path opacity="0.35" fill="#480E1A" d="M2655.313,570.026c0,0,18.254-0.398,33.141,4.339c14.887,4.738,22.228,8.737,22.228,8.737
				l0.82,14.415c0,0-13.061-12.544-26.309-16.378c-16.114-4.664-29.55-5.261-29.55-5.261L2655.313,570.026z"/>
			<path opacity="0.35" fill="#480E1A" d="M2714.201,655.723c0,0-8.891-11.691-27.504-6.324
				c-15.598,4.498-25.43,12.687-29.474,9.698l0.096,3.206c0,0,14.191-9.734,32.821-9.824s24.271,6.989,24.271,6.989
				L2714.201,655.723z"/>
			<path opacity="0.35" fill="#480E1A" d="M2755.239,1541.091l0.21,3.746c0.727,0.896-22.916-2.843-33.807-1.715
				c-10.892,1.128-41.05,12.815-41.05,12.815l-0.045-5.04c0,0,20.356-9.25,40.778-13.394
				C2735.868,1534.553,2755.239,1541.091,2755.239,1541.091z"/>
			<path opacity="0.35" fill="#480E1A" d="M2658.459,731.376c0,0,1.41-0.232,3.667-0.611c5.391-0.906,14.696-2.499,15.841-2.9
				c1.623-0.568,0.202,12.765-18.966,25.198L2658.459,731.376z"/>
			<path opacity="0.35" fill="#480E1A" d="M2724.871,883.653l0.221,5.084c0,0-5.883,15.832-28.502,21.427s-33.927,4.81-33.927,4.81
				l-0.554-20.082c0,0,22.667,8.939,34.008,6.844C2707.456,899.642,2720.919,894.696,2724.871,883.653z"/>
			<path opacity="0.35" fill="#480E1A" d="M2732.677,1058.058c0,0-1.766,8.562-24.266,16.029c-22.5,7.467-41.386-0.318-41.386-0.318
				l0.317,10.688c0,0,26.232,4.149,40.402-2.344c14.169-6.493,25.196-19.374,25.196-19.374L2732.677,1058.058z"/>
			<path opacity="0.35" fill="#480E1A" d="M2738.508,1183.138c0,0-14.805,11.295-33.599,17.129s-34.151,8.641-34.151,8.641
				l0.566,15.997c0,0,18.35-5.093,37.913-11.913c19.564-6.819,29.5-24.931,29.5-24.931L2738.508,1183.138z"/>
			<path opacity="0.35" fill="#480E1A" d="M2750.678,1444.139c0,0-8.252,4.935-28.227,8.96c-19.975,4.026-45.101-0.536-45.101-0.536
				l0.195,7.552c0,0,28.251-1.313,45.09-3.74c16.839-2.427,27.998-9.271,27.998-9.271L2750.678,1444.139z"/>
			<path opacity="0.35" fill="#480E1A" d="M2663.469,943.463l0.756,28.109c0,0,16.195-11.282,16.953-17.435
				C2681.936,947.984,2671.562,940.155,2663.469,943.463z"/>
			<path opacity="0.35" fill="#480E1A" d="M2731.068,1024.302l1.431,30.551c0,0-12.695-2.991-14.242-10.883
				C2716.709,1036.077,2720.916,1020.218,2731.068,1024.302z"/>
			<path opacity="0.35" fill="#480E1A" d="M2745.798,1340.647l1.902,40.406c0,0-16.685-2.28-18.627-17.195
				C2727.13,1348.942,2738.279,1334.525,2745.798,1340.647z"/>
			<path opacity="0.35" fill="#480E1A" d="M2705.744,480.321c0,0-22.452-1.462-31.446,1.9c-8.994,3.362-19.997,8.611-20.387,10.043
				l0.115,5.791c0,0,8.914-8.454,21.917-11.706c13.004-3.252,30.068-1.289,30.068-1.289L2705.744,480.321z"/>
			<path opacity="0.35" fill="#561424" d="M2647.848,116.434c0,0,11.627-4.905,22.565-1.338s18.484,9.765,18.484,9.765l0.153,2.732
				c0,0-7.594-7.846-20.913-10.48c-13.32-2.634-20.282,1.75-20.282,1.75L2647.848,116.434z"/>
			<path opacity="0.35" fill="#480E1A" d="M2692.463,201.64c0,0-24.436,1.946-30.603,4.198c-6.167,2.251-13.431,7.388-13.431,7.388
				l0.057,5.847c0,0,8.097-6.34,22.118-8.831c14.021-2.491,22.267-1.346,22.267-1.346L2692.463,201.64z"/>
			<path opacity="0.35" fill="#561424" d="M2695.724,283.221l0.354,7.472c0,0-19.379-4.991-28.15-2.112
				c-8.771,2.879-17.641,8.214-17.641,8.214l-0.055-5.054C2650.233,291.743,2677.365,273.996,2695.724,283.221z"/>
			<path opacity="0.35" fill="#561424" d="M2690.911,166.94c-1.524-0.285-10.448,1.72-8.455,7.707
				c1.992,5.986,9.49,14.366,9.49,14.366L2690.911,166.94z"/>
			<path opacity="0.35" fill="#561424" d="M2647.686,58.494l0.013,4.886c0,0,26.507,0.511,38.758,8.474l-0.662-11.769
				C2685.796,60.086,2658.573,55.826,2647.686,58.494z"/>
		</g>
		<g>
			<path fill="#701C91" d="M2760.311,158.968l30.528-159.333l5.536,0.166l-28.009,161.87l-60.541,71.457
				c0,0-4.069-17.952-6.062-26.738L2760.311,158.968z"/>
			<polygon fill="#55156E" points="2693.088,213.415 2701.762,206.389 2707.825,233.128 2694.735,248.578 			"/>
		</g>
	</g>
</g>
</svg>
